<?xml version="1.0" standalone="no"?>
<!DOCTYPE svg PUBLIC "-//W3C//DTD SVG 20010904//EN"
 "http://www.w3.org/TR/2001/REC-SVG-20010904/DTD/svg10.dtd">
<svg version="1.0" xmlns="http://www.w3.org/2000/svg"
 width="700.000000pt" height="700.000000pt" viewBox="0 0 700.000000 700.000000"
 preserveAspectRatio="xMidYMid meet">
<metadata>
Created by potrace 1.14, written by Peter Selinger 2001-2017
</metadata>
<g transform="translate(0.000000,700.000000) scale(0.100000,-0.100000)"
fill="#000000" stroke="none">
<path d="M3775 6579 c-44 -34 -36 -24 -452 -618 -210 -300 -387 -553 -393
-561 -6 -8 -58 -82 -116 -165 -58 -82 -126 -179 -150 -215 -25 -36 -67 -96
-94 -135 -27 -38 -54 -77 -60 -85 -6 -8 -43 -61 -83 -117 -39 -57 -97 -139
-127 -183 -30 -45 -62 -90 -70 -101 -8 -10 -30 -40 -48 -67 -91 -130 -273
-391 -292 -417 -12 -16 -64 -91 -115 -165 -52 -74 -99 -142 -105 -150 -151
-216 -189 -271 -207 -300 -24 -39 -26 -108 -3 -135 32 -39 62 -41 505 -44 560
-2 585 -4 607 -31 12 -15 18 -41 19 -79 1 -52 6 -1134 9 -2116 1 -226 4 -423
7 -438 7 -34 58 -88 101 -106 21 -9 47 -11 79 -6 47 7 84 36 148 115 26 32
1688 2250 1825 2435 57 77 162 219 234 315 152 204 159 217 152 266 -8 47 -21
70 -53 91 -29 19 -72 21 -652 23 -191 1 -273 5 -295 14 -47 20 -93 63 -124
114 l-27 47 -2 875 c-1 481 -2 1096 -3 1367 0 302 -5 503 -11 520 -15 42 -55
66 -119 71 -46 3 -60 0 -85 -19z"/>
</g>
</svg>
